<svg fill="none" height="37" viewBox="0 0 196 37" width="196" xmlns="http://www.w3.org/2000/svg"><path d="m15.8647 36.528c-3.256 0-6.08666-.6307-8.492-1.892-2.376-1.2613-4.19466-2.992-5.456-5.192-1.261329-2.2293-1.8919956-4.7227-1.8919956-7.48 0-2.6693.7040006-5.06 2.1119956-7.172 1.408-2.1413 3.32934-3.7987 5.764-4.972 2.4347-1.20267 5.148-1.804 8.14-1.804 1.3787 0 2.7867.132 4.224.396 1.4373.23467 2.5667.528 3.388.88.2347.11733.3813.23466.44.352.0587.11733.1027.33733.132.66l.352 5.764c0 .1173-.0733.1907-.22.22s-.2493 0-.308-.088c-1.0267-2.2293-2.376-3.96-4.048-5.192-1.672-1.26133-3.608-1.892-5.808-1.892-2.8453 0-5.06 1.012-6.64399 3.036-1.58401 1.9947-2.37601 4.7227-2.37601 8.184 0 3.0213.528 5.6907 1.584 8.008s2.49334 4.1067 4.312 5.368c1.848 1.2613 3.9307 1.892 6.248 1.892 1.056 0 1.8627-.1467 2.42-.44.5573-.3227.9387-.836 1.144-1.54.2347-.7333.352-1.7893.352-3.168 0-1.4373-.132-2.4787-.396-3.124s-.748-1.0707-1.452-1.276-1.8333-.308-3.388-.308c-.176 0-.264-.1173-.264-.352 0-.088.0147-.1613.044-.22.0587-.088.1173-.132.176-.132 2.4347.1467 4.4587.22 6.072.22 1.5253 0 3.1093-.044 4.752-.132.1173 0 .1907.1027.22.308s-.0147.308-.132.308c-.4693-.0293-.7627.088-.88.352s-.176.8653-.176 1.804v2.992c0 1.32.044 2.244.132 2.772s.132.8947.132 1.1c0 .176-.0293.2933-.088.352-.0293.0587-.132.1173-.308.176-3.7547.8213-7.0253 1.232-9.812 1.232zm37.3821-7.524c.0587-.0587.132-.088.22-.088s.176.0293.264.088c.088.0293.1174.0587.088.088-.2933 1.9067-.44 3.9893-.44 6.248 0 .2347-.044.4107-.132.528-.088.088-.264.132-.528.132h-20.064c-.1173 0-.176-.088-.176-.264s.044-.264.132-.264c.88 0 1.5107-.0733 1.892-.22.4107-.1467.6747-.4253.792-.836.1467-.4107.22-1.0707.22-1.98v-20.372c0-.88-.0733-1.5253-.22-1.936-.1466-.41067-.4253-.68934-.836-.836-.4106-.176-1.0266-.264-1.848-.264-.088 0-.1466-.088-.176-.264 0-.176.0294-.264.088-.264h18.964c.2347 0 .352.132.352.396l.088 5.808c0 .088-.088.132-.264.132-.1466 0-.2346-.0293-.264-.088-.4986-1.6427-1.408-2.9333-2.728-3.872-1.2906-.968-2.8306-1.452-4.62-1.452h-.836c-.9093 0-1.5693.07333-1.98.22-.3813.11733-.6306.352-.748.704-.1173.352-.1906.9387-.22 1.76v8.976h5.5c1.496 0 2.596-.264 3.3-.792s1.056-1.3787 1.056-2.552c0-.1173.1027-.176.308-.176.2054 0 .308.0733.308.22l-.044 2.42c-.0293.352-.044.8507-.044 1.496 0 .9387.0147 1.6427.044 2.112l.044 2.376c0 .1467-.088.22-.264.22-.088 0-.176-.0147-.264-.044-.0586-.0587-.088-.1173-.088-.176 0-1.2613-.396-2.2147-1.188-2.86-.7626-.6747-1.848-1.012-3.256-1.012h-5.412v9.944c0 1.1733.176 1.936.528 2.288.3814.352 1.1587.528 2.332.528h1.232c1.9067 0 3.652-.5427 5.236-1.628 1.584-1.1147 2.8014-2.596 3.652-4.444zm34.8157 6.468c.088 0 .132.088.132.264.0294.176-.0146.264-.132.264h-7.216c-.704 0-1.936-1.1733-3.696-3.52-1.7306-2.376-3.828-5.94-6.292-10.692-.8213.2053-1.7306.308-2.728.308-.1466 0-.3373-.0293-.572-.088v10.428c-.0293.8507.0294 1.496.176 1.936.176.4107.4694.704.88.88.44.1467 1.1.22 1.98.22.1174 0 .176.088.176.264.0294.176-.0146.264-.132.264-.9973 0-1.76-.0147-2.288-.044l-3.256-.044-3.3.044c-.5866.0293-1.3786.044-2.376.044-.1173 0-.1906-.088-.22-.264 0-.176.0587-.264.176-.264.968 0 1.6867-.0733 2.156-.22.4694-.176.7774-.4693.924-.88.176-.44.2787-1.0853.308-1.936v-20.372c0-.88-.088-1.5253-.264-1.936-.1466-.41067-.44-.68934-.88-.836-.44-.176-1.1146-.264-2.024-.264-.1173 0-.176-.088-.176-.264s.0587-.264.176-.264l2.332.044c1.2907.05867 2.3467.088 3.168.088.9974 0 2.0827-.05867 3.256-.176.9387-.05867 1.5547-.088 1.848-.088 2.9627 0 5.1774.484 6.644 1.452 1.496.968 2.244 2.3173 2.244 4.048 0 1.2613-.4253 2.4787-1.276 3.652-.8213 1.1733-1.9213 2.156-3.3 2.948 2.288 3.784 4.224 6.7613 5.808 8.932 1.6134 2.1413 3.0214 3.696 4.224 4.664 1.232.9387 2.4054 1.408 3.52 1.408zm-20.504-14.696c.352.088.7774.132 1.276.132 1.936 0 3.3-.4253 4.092-1.276.8214-.8507 1.232-2.2733 1.232-4.268 0-2.0827-.4106-3.608-1.232-4.576-.792-.99734-1.7746-1.496-2.948-1.496-.792 0-1.3346.05866-1.628.176-.2933.088-.4986.32267-.616.704-.088.352-.1466 1.012-.176 1.98zm24.091 15.224c-.0586 0-.088-.088-.088-.264s.0294-.264.088-.264c.9094 0 1.5547-.0733 1.936-.22.4107-.1467.6894-.4253.836-.836.1467-.4107.22-1.0707.22-1.98v-20.372c0-.8507-.088-1.4813-.264-1.892-.1466-.44-.4253-.73334-.836-.88-.4106-.176-1.0413-.264-1.892-.264-.0586 0-.1026-.088-.132-.264 0-.176.044-.264.132-.264l2.2.044c1.2907.05867 2.332.088 3.124.088.88 0 1.9947-.02933 3.3445-.088l2.156-.044c.058 0 .088.088.088.264s-.03.264-.088.264c-.88 0-1.526.088-1.936.264-.411.176-.6898.46933-.8365.88-.1173.4107-.1906 1.0707-.22 1.98v20.284c0 .88.0734 1.5253.22 1.936.176.4107.4695.704.8805.88.41.1467 1.041.22 1.892.22.058 0 .088.088.088.264s-.03.264-.088.264c-.91 0-1.643-.0147-2.2-.044l-3.2125-.044-3.124.044c-.5573.0293-1.32.044-2.288.044zm2.552-29.832c-.1173 0-.2053-.05867-.264-.176-.0586-.14667-.044-.24933.044-.308.7334-.58667 1.7014-1.51067 2.904-2.772 1.2027-1.20267 1.804-1.804 1.804-1.804.1467-.146668.6747-.088 1.5845.176.938.23467 1.774.528 2.508.88.762.32267.982.51333.66.572-3.139.82133-6.1898 1.95067-9.1525 3.388zm29.5415 30.36c-3.608 0-6.571-.704-8.888-2.112s-3.989-3.1827-5.016-5.324c-1.027-2.1707-1.54-4.4587-1.54-6.864 0-2.904.704-5.4267 2.112-7.568 1.437-2.1707 3.329-3.8133 5.676-4.928 2.376-1.144 4.943-1.716 7.7-1.716 1.349 0 2.757.132 4.224.396 1.467.23467 2.655.528 3.564.88.235.14666.381.27866.44.396.088.11733.132.3227.132.616l.308 5.896c0 .088-.073.132-.22.132-.117 0-.205-.044-.264-.132-1.085-2.2293-2.479-3.9453-4.18-5.148-1.672-1.232-3.579-1.848-5.72-1.848-2.787 0-4.928 1.012-6.424 3.036-1.467 2.024-2.2 4.8693-2.2 8.536 0 2.64.455 5.104 1.364 7.392.939 2.288 2.2 4.1067 3.784 5.456s3.329 2.024 5.236 2.024c3.021 0 5.837-2.2293 8.448-6.688.059-.088.132-.132.22-.132.176 0 .264.088.264.264l-.264 5.06c-.059.3813-.117.6307-.176.748-.059.088-.22.176-.484.264-2.581.9093-5.28 1.364-8.096 1.364zm42.934-1.056c.058 0 .088.088.088.264s-.03.264-.088.264c-.822 0-1.496-.0147-2.024-.044l-3.3-.044-3.168.044c-.558.0293-1.32.044-2.288.044-.059 0-.103-.088-.132-.264 0-.176.044-.264.132-.264.909 0 1.554-.0733 1.936-.22.41-.1467.674-.4253.792-.836.117-.4107.176-1.0707.176-1.98v-10.12h-12.672v10.12c0 .88.073 1.5253.22 1.936.176.4107.469.704.88.88.41.1467 1.056.22 1.936.22.088 0 .132.088.132.264s-.044.264-.132.264c-.968 0-1.716-.0147-2.244-.044l-3.256-.044-3.036.044c-.558.0293-1.291.044-2.2.044-.088 0-.132-.088-.132-.264s.044-.264.132-.264c.88 0 1.51-.0733 1.892-.22.41-.1467.674-.4253.792-.836.146-.4107.22-1.0707.22-1.98v-20.372c.029-1.232-.147-2.0387-.528-2.42-.382-.41067-1.174-.616-2.376-.616-.088 0-.132-.088-.132-.264s.044-.264.132-.264l2.112.044c1.29.05867 2.332.088 3.124.088s1.862-.02933 3.212-.088l2.244-.044c.058 0 .088.088.088.264s-.03.264-.088.264c-.88 0-1.526.088-1.936.264-.411.176-.69.484-.836.924-.118.4107-.191 1.056-.22 1.936v8.932h12.628v-8.932c0-1.2613-.191-2.0973-.572-2.508-.352-.41067-1.13-.616-2.332-.616-.059 0-.103-.088-.132-.264 0-.176.044-.264.132-.264l2.156.044c1.29.05867 2.346.088 3.168.088.792 0 1.833-.02933 3.124-.088l2.244-.044c.088 0 .132.088.132.264s-.044.264-.132.264c-.88 0-1.526.088-1.936.264-.382.14666-.646.42533-.792.836-.147.4107-.25 1.056-.308 1.936v20.372c0 .8507.088 1.496.264 1.936.205.4107.528.704.968.88.44.1467 1.085.22 1.936.22zm10.447.528c-.088 0-.132-.088-.132-.264s.03-.264.088-.264c1.232 0 2.127-.0733 2.684-.22.587-.1467.983-.4253 1.188-.836.206-.44.308-1.1.308-1.98v-20.372c.03-1.0267-.102-1.7013-.396-2.024-.293-.352-.85-.528-1.672-.528h-.572c-.997 0-1.98.32266-2.948.968-.968.616-1.789 1.452-2.464 2.508-.674 1.0267-1.085 2.156-1.232 3.388 0 .0587-.073.088-.22.088-.088 0-.176-.0147-.264-.044-.058-.0587-.073-.1027-.044-.132.147-1.1147.367-4.0333.66-8.756 0-.088.074-.132.22-.132.088 0 .162.01466.22.044.088.02933.132.07333.132.132 0 .616.66.924 1.98.924 2.376.088 5.354.132 8.932.132 1.614 0 3.418-.02933 5.412-.088l3.08-.044c.968 0 1.672-.07333 2.112-.22s.719-.44.836-.88c.059-.088.162-.11734.308-.088.176 0 .25.05867.22.176-.088 1.29067-.176 2.9187-.264 4.884-.088 1.936-.117 3.2413-.088 3.916 0 .088-.088.132-.264.132-.234 0-.352-.0587-.352-.176 0-1.2027-.278-2.3173-.836-3.344-.528-1.0267-1.276-1.848-2.244-2.464-.938-.616-1.965-.924-3.08-.924h-.572c-.586 0-1.012.07333-1.276.22-.234.14667-.381.396-.44.748-.058.3227-.102.88-.132 1.672l.044 20.284c0 .9093.088 1.5693.264 1.98.206.4107.587.6893 1.144.836.558.1467 1.467.22 2.728.22.088 0 .132.088.132.264s-.044.264-.132.264c-1.085 0-1.936-.0147-2.552-.044l-4.004-.044-3.784.044c-.645.0293-1.554.044-2.728.044z" fill="#fff"/></svg>