<svg fill="none" height="10" viewBox="0 0 40 10" width="40" xmlns="http://www.w3.org/2000/svg" xmlns:xlink="http://www.w3.org/1999/xlink"><clipPath id="a"><path d="m-.000214.5h40v9h-40z"/></clipPath><g clip-path="url(#a)"><path d="m33.5014 9.5c3.5833 0 6.4984-2.01871 6.4984-4.50005s-2.9151-4.49995-6.4984-4.49995c-3.3894 0-6.1795 1.80637-6.4716 4.1018h-4.6771v-.9466h-22.35291362v2.68926h22.35301362v-.94648h4.6771c.2922 2.29554 3.0821 4.10202 6.4715 4.10202zm-12.0118-3.95161h-20.626521v-1.09678h20.626521zm6.3764-.54844c0-2.04217 2.5282-3.70355 5.6355-3.70355s5.6355 1.66138 5.6355 3.70355c0 2.04227-2.5282 3.70375-5.6355 3.70375s-5.6355-1.66148-5.6355-3.70375z" fill="#dcca87"/></g></svg>